<svg width="216" height="40" viewBox="0 0 216 40" fill="none" xmlns="http://www.w3.org/2000/svg">
<g clip-path="url(#clip0_3002_579)">
<path d="M119.754 12.317C118.836 11.0796 118.341 9.5766 118.344 8.03304C118.345 7.08444 118.533 6.14537 118.895 5.2695C119.257 4.39363 119.788 3.59815 120.457 2.92854C121.126 2.25895 121.919 1.72837 122.791 1.36714C123.664 1.00591 124.599 0.821121 125.543 0.823325H142.188C143.651 0.81628 145.08 1.25914 146.285 2.0924C147.49 2.92567 148.412 4.10944 148.928 5.48477C149.444 6.86009 149.529 8.36111 149.171 9.78623C148.813 11.2114 148.03 12.4923 146.926 13.4571C146.846 13.5354 146.782 13.6291 146.738 13.7328C146.694 13.8365 146.672 13.948 146.672 14.0608C146.672 14.1735 146.694 14.285 146.738 14.3886C146.782 14.4924 146.846 14.5862 146.926 14.6644C148.032 15.6278 148.816 16.9083 149.174 18.3334C149.533 19.7586 149.449 21.2599 148.933 22.6353C148.416 24.0107 147.493 25.1942 146.287 26.0263C145.082 26.8586 143.651 27.2994 142.188 27.2898H135.62C135.259 27.2887 134.901 27.3593 134.567 27.4973C134.233 27.6354 133.93 27.8385 133.674 28.0947C133.418 28.3509 133.216 28.6553 133.077 28.9905C132.939 29.3256 132.867 29.685 132.867 30.0479V32.0683C132.861 33.1494 132.615 34.2158 132.15 35.1905C131.684 36.1653 131.01 37.0244 130.175 37.7064C129.34 38.3883 128.365 38.8762 127.321 39.1348C126.276 39.3935 125.188 39.4167 124.133 39.2026C122.749 38.8445 121.488 38.1134 120.487 37.0881C119.486 36.0627 118.783 34.7822 118.453 33.3845C118.257 32.2782 118.322 31.1413 118.645 30.0653C118.966 28.9892 119.534 28.0041 120.305 27.1892C120.585 26.8982 120.742 26.5088 120.742 26.1035C120.742 25.6982 120.585 25.3088 120.305 25.0179C119.15 23.7904 118.462 22.1937 118.361 20.5075C118.26 18.8214 118.753 17.1535 119.754 15.7962C120.127 15.2936 120.328 14.6834 120.328 14.0566C120.328 13.4296 120.127 12.8194 119.754 12.317Z" fill="#252525"/>
<path fill-rule="evenodd" clip-rule="evenodd" d="M53.6225 39.3477V31.6005L48.1641 37.0786L41.443 30.3332L46.9014 24.8551H39.1821V15.3158H46.9014L41.443 9.83769L48.1641 3.09233L53.6225 8.57042V0.823242H63.1276V8.57037L68.5858 3.09232L75.307 9.83769L69.8486 15.3158H77.5679V24.8551H69.8486L75.307 30.3332L68.5858 37.0786L63.1276 31.6005V39.3477H53.6225ZM58.4032 13.95L64.5447 20.1137L58.4032 26.2775L52.2617 20.1137L58.4032 13.95Z" fill="#252525"/>
<path d="M40.0742 7.09135L31.478 0.823242H19.0058L8.91543 8.18075L5.06128 20.0854L8.91543 31.9901L19.0058 39.3476H31.478L40.0924 33.0663L31.1931 24.6414L27.5629 27.2719H22.8997L19.1269 24.5381L17.6859 20.1148L19.1269 15.6915L22.8997 12.9577H27.5629L31.1398 15.5496L40.0742 7.09135Z" fill="#252525"/>
<path d="M107.761 1.45105V15.3449H114.703V38.5486H101.393V17.7173C101.393 15.8121 99.8538 14.2676 97.9553 14.2676C96.057 14.2676 94.518 15.8121 94.518 17.7173V38.5486H81.2078V15.3198H88.1446V1.45105L107.761 1.45105Z" fill="#252525"/>
<path d="M160.822 18.0593C165.565 18.0593 169.41 14.2009 169.41 9.44129C169.41 4.68167 165.565 0.823242 160.822 0.823242C156.08 0.823241 152.235 4.68167 152.235 9.44129C152.235 14.2009 156.08 18.0593 160.822 18.0593Z" fill="#252525"/>
<path d="M169.255 32.2426C170.548 30.9446 170.548 28.8401 169.255 27.5422L163.146 21.4105C161.852 20.1125 159.756 20.1125 158.462 21.4105L152.352 27.5421C151.059 28.8401 151.059 30.9446 152.352 32.2426L158.462 38.3742C159.756 39.6722 161.852 39.6722 163.146 38.3742L169.255 32.2426Z" fill="#252525"/>
<path fill-rule="evenodd" clip-rule="evenodd" d="M173.39 1.45105H202.563V21.9973L193.863 30.6725H173.39V1.45105ZM193.113 16.0852C193.113 18.9351 190.811 21.2453 187.972 21.2453C185.132 21.2453 182.83 18.9351 182.83 16.0852C182.83 13.2355 185.132 10.9252 187.972 10.9252C190.811 10.9252 193.113 13.2355 193.113 16.0852Z" fill="#252525"/>
<path d="M193.863 30.6725V39.3477H211.207V21.9975L202.563 21.9974V30.6726L193.863 30.6725Z" fill="#252525"/>
</g>
<defs>
<clipPath id="clip0_3002_579">
<rect width="216" height="39" fill="white" transform="translate(-0.000244141 0.5)"/>
</clipPath>
</defs>
</svg>
