<svg width="12" height="13" viewBox="0 0 12 13" fill="none" xmlns="http://www.w3.org/2000/svg">
<g clip-path="url(#clip0_3002_484)">
<mask id="mask0_3002_484" style="mask-type:luminance" maskUnits="userSpaceOnUse" x="-1" y="0" width="13" height="13">
<path d="M11.9998 0.800049H-0.000244141V12.8H11.9998V0.800049Z" fill="white"/>
</mask>
<g mask="url(#mask0_3002_484)">
<path d="M8.99976 0.800049H2.99976C1.3429 0.800049 -0.000244141 2.14319 -0.000244141 3.80005C-0.000244141 5.4569 1.3429 6.80005 2.99976 6.80005H8.99976C10.6566 6.80005 11.9998 5.4569 11.9998 3.80005C11.9998 2.14319 10.6566 0.800049 8.99976 0.800049Z" fill="#252525"/>
<path d="M8.99976 6.80005H2.99976C1.3429 6.80005 -0.000244141 8.14319 -0.000244141 9.80005C-0.000244141 11.4569 1.3429 12.8 2.99976 12.8H8.99976C10.6566 12.8 11.9998 11.4569 11.9998 9.80005C11.9998 8.14319 10.6566 6.80005 8.99976 6.80005Z" fill="#252525"/>
</g>
<path d="M11.9971 0.802856H0.00268555V12.7973H11.9971V0.802856Z" stroke="#252525" stroke-width="0.005625"/>
</g>
<defs>
<clipPath id="clip0_3002_484">
<rect width="12" height="12" fill="white" transform="translate(-0.000244141 0.800049)"/>
</clipPath>
</defs>
</svg>
