<svg width="12" height="13" viewBox="0 0 12 13" fill="none" xmlns="http://www.w3.org/2000/svg">
<mask id="mask0_3002_65" style="mask-type:luminance" maskUnits="userSpaceOnUse" x="0" y="0" width="12" height="13">
<path d="M12 0.129883H0V12.1299H12V0.129883Z" fill="white"/>
</mask>
<g mask="url(#mask0_3002_65)">
<path d="M0 0.129883C-1.3911e-07 1.72118 0.63214 3.2473 1.75736 4.37252C2.88258 5.49774 4.4087 6.12988 6 6.12988C7.5913 6.12988 9.11742 5.49774 10.2426 4.37252C11.3679 3.2473 12 1.72118 12 0.129884L0 0.129883Z" fill="#252525"/>
<path d="M12 12.1299C12 10.5386 11.3679 9.01246 10.2426 7.88724C9.11742 6.76202 7.5913 6.12988 6 6.12988C4.4087 6.12988 2.88258 6.76202 1.75736 7.88724C0.632141 9.01246 2.40279e-07 10.5386 0 12.1299H12Z" fill="#252525"/>
</g>
</svg>
